<svg width="20" height="20" viewBox="0 0 20 20" fill="none" xmlns="http://www.w3.org/2000/svg">
<path d="M16.1562 10H20V8.21875C20 6.96875 19.2188 5.90625 18.125 5.5V3.40625C18.125 2.0625 17 0.9375 15.625 0.9375H2.8125C1.25 0.9375 0 2.21875 0 3.75V16.1562C0 17.75 1.3125 19.0625 2.90625 19.0625H17.0625C18.6875 19.0625 19.9688 17.75 19.9688 16.1562V15H16.1562C14.8438 15 13.75 13.875 13.75 12.5C13.75 11.125 14.8438 10 16.1562 10ZM2.8125 5.3125C1.9375 5.3125 1.25 4.625 1.25 3.75C1.25 2.875 1.9375 2.1875 2.8125 2.1875H15.625C16.3125 2.1875 16.875 2.75 16.875 3.40625V5.3125H2.8125Z" fill="#EEEEEE"/>
<path d="M15 12.5C15 13.1875 15.5313 13.75 16.1563 13.75H20V11.25H16.1563C15.5313 11.25 15 11.8125 15 12.5ZM16.875 12.5C16.875 12.8438 16.5938 13.125 16.25 13.125C15.9062 13.125 15.625 12.8438 15.625 12.5C15.625 12.1562 15.9062 11.875 16.25 11.875C16.5938 11.875 16.875 12.1562 16.875 12.5Z" fill="#EEEEEE"/>
<path d="M15 3.125H3.125C2.78125 3.125 2.5 3.40625 2.5 3.75C2.5 4.09375 2.78125 4.375 3.125 4.375H15C15.3438 4.375 15.625 4.09375 15.625 3.75C15.625 3.40625 15.3438 3.125 15 3.125Z" fill="#EEEEEE"/>
</svg>
