<svg width="20" height="20" viewBox="0 0 20 20" fill="none" xmlns="http://www.w3.org/2000/svg">
<path d="M18.75 3.125H1.25C0.5625 3.125 0 3.6875 0 4.375V5.625H20V4.375C20 3.6875 19.4375 3.125 18.75 3.125Z" fill="#EEEEEE"/>
<path d="M0 15.3125C0 16 0.5625 16.5625 1.25 16.5625H18.75C19.4375 16.5625 20 16 20 15.3125V8.125H0V15.3125ZM10.9375 12.1875H17.8125V13.4375H10.9375V12.1875ZM2.8125 11.875C2.8125 11.6875 2.96875 11.5625 3.125 11.5625H6.5625C6.71875 11.5625 6.875 11.6875 6.875 11.875V14.0625C6.875 14.25 6.71875 14.375 6.5625 14.375H3.125C2.96875 14.375 2.8125 14.25 2.8125 14.0625V11.875Z" fill="#EEEEEE"/>
</svg>
