<svg width="20" height="20" viewBox="0 0 20 20" fill="none" xmlns="http://www.w3.org/2000/svg">
<g clip-path="url(#clip0)">
<path fill-rule="evenodd" clip-rule="evenodd" d="M9.08733 12.3372C10.4542 12.3389 12.803 12.3307 13.1571 12.3307C14.0416 12.2819 14.0655 10.8626 13.1571 10.8626H9.80925V7.64811C9.80925 7.00358 8.3329 6.88477 8.3329 7.64811C8.3329 9.1862 8.3329 10.1611 8.3329 11.6585C8.3329 12.5065 8.16012 12.3356 9.08733 12.3372ZM20 7.07194V1.78711L18.6109 3.10872C18.5459 3.17057 18.4586 3.2015 18.3731 3.2015C18.2876 3.2015 18.202 3.17057 18.1353 3.10872L17.8616 2.85482C17.7709 2.77018 17.6751 2.68392 17.5759 2.59928C17.4784 2.51465 17.3792 2.43327 17.28 2.35189C17.179 2.27051 17.0764 2.19238 16.9755 2.11589C16.8745 2.04102 16.7685 1.96452 16.659 1.88965C16.5495 1.81478 16.44 1.74154 16.3322 1.67318C16.2227 1.60319 16.1132 1.53646 16.0038 1.47298C15.8909 1.40788 15.7797 1.3444 15.6685 1.28418C15.5556 1.22396 15.4409 1.16374 15.3229 1.10677L15.3212 1.10514C15.2066 1.04492 15.0783 0.987956 14.9568 0.934245L14.7105 0.830078C14.5462 0.761719 14.3786 0.696615 14.2109 0.636393C14.0433 0.576172 13.8739 0.520833 13.7046 0.46875C13.5352 0.418294 13.3641 0.369466 13.1879 0.327148C13.0151 0.284831 12.8389 0.244141 12.6627 0.209961C12.4831 0.174154 12.3052 0.143229 12.129 0.117188C11.9545 0.0911458 11.7766 0.069987 11.5952 0.0520833C11.4156 0.0341797 11.236 0.0211589 11.0564 0.0113932C10.8785 0.00488281 10.7005 0 10.5243 0H10.5004C10.1548 0 9.81096 0.016276 9.47224 0.0488281C9.1301 0.0813802 8.78967 0.128581 8.45437 0.192057C8.11564 0.255534 7.78205 0.335286 7.45702 0.429688C7.12685 0.524089 6.80352 0.634766 6.48875 0.758464C6.18767 0.877279 5.89513 1.00911 5.60773 1.15234C5.32033 1.2972 5.03977 1.45508 4.76606 1.62598C4.49063 1.79688 4.22547 1.97917 3.97229 2.17122C3.71568 2.36491 3.47105 2.56999 3.23668 2.7832L3.08271 2.92969C2.83808 3.16406 2.60371 3.4082 2.38474 3.66211C2.16748 3.91439 1.96219 4.17806 1.77059 4.44987C1.57899 4.72168 1.40279 5.00326 1.24027 5.29134C1.07946 5.5778 0.932341 5.8724 0.800616 6.17676C0.670601 6.47624 0.554272 6.78385 0.45334 7.09798C0.355829 7.4056 0.272004 7.72298 0.203575 8.04688C0.136857 8.36589 0.0855359 8.68978 0.0530322 9.0153C0.0171072 9.33431 0 9.65983 0 9.98698V10.013C0 10.3418 0.0171072 10.6673 0.0513215 10.9896C0.0855359 11.3151 0.135147 11.6374 0.201865 11.958C0.268583 12.2803 0.352408 12.596 0.451629 12.9069C0.552562 13.2227 0.66718 13.5303 0.797194 13.8265C0.93063 14.1309 1.07775 14.4271 1.23856 14.7135C1.40108 15.0016 1.57899 15.2832 1.76888 15.555C1.96048 15.8285 2.16577 16.0921 2.38474 16.3444C2.60371 16.5967 2.83466 16.8408 3.07929 17.0736L3.1289 17.1191C3.3684 17.3454 3.61988 17.5602 3.88162 17.762C4.14336 17.9639 4.41536 18.1559 4.69592 18.3333C4.9799 18.5124 5.27072 18.6784 5.5701 18.8314C5.86776 18.9827 6.17398 19.1211 6.48704 19.2448C6.8001 19.3685 7.12343 19.4775 7.45531 19.5736C7.78205 19.668 8.11564 19.7477 8.45437 19.8112C8.78796 19.8747 9.12668 19.9219 9.46711 19.9544C9.80412 19.987 10.1428 20.0033 10.485 20.0033L10.5106 20.0016C10.9469 20.0016 11.378 19.9756 11.8022 19.9268C12.2316 19.8763 12.6542 19.8031 13.0648 19.7054C13.4839 19.6061 13.8927 19.4824 14.2879 19.3392C14.6882 19.1927 15.0783 19.0234 15.4529 18.8314C15.8327 18.6393 16.1988 18.4229 16.5512 18.1885C16.9053 17.9525 17.2423 17.6953 17.5605 17.4219C17.8787 17.1468 18.1815 16.8538 18.4638 16.543C18.7443 16.2337 19.0061 15.9082 19.2473 15.5664L19.379 15.376L19.5005 15.1888L19.6476 14.9512H16.2433C16.1817 15.0163 16.1201 15.0781 16.0602 15.1367C15.9884 15.2067 15.9148 15.2767 15.8395 15.3434C15.7523 15.4215 15.6616 15.4997 15.5675 15.5778C15.4752 15.6543 15.3794 15.7292 15.2801 15.8024C15.1689 15.8854 15.056 15.9652 14.9448 16.04C14.8319 16.1165 14.7156 16.1882 14.601 16.2565C14.4846 16.3249 14.3649 16.3932 14.2451 16.4551C14.1254 16.5186 14.0022 16.5788 13.8773 16.6357L13.7422 16.696L13.5985 16.7562L13.4565 16.8132C13.3299 16.8604 13.2067 16.9059 13.0784 16.9499C13.0647 16.958 13.0494 16.9645 13.034 16.971C13.0151 16.9792 12.9963 16.9841 12.9775 16.9873L12.7209 17.0589C12.6302 17.085 12.5396 17.1077 12.4472 17.1305C12.3531 17.1533 12.2641 17.1745 12.1786 17.1924L12.1615 17.1956C12.0777 17.2135 11.9887 17.2298 11.8946 17.2461C11.8022 17.2624 11.7133 17.2754 11.6312 17.2868L11.455 17.3096L11.2702 17.3291L11.1248 17.3405L10.9931 17.3486L10.9503 17.3584C10.9315 17.3617 10.911 17.3633 10.8921 17.3633H10.1326C10.1138 17.3633 10.0932 17.3617 10.0744 17.3584L10.0316 17.3486C9.82636 17.3372 9.62279 17.3177 9.42092 17.29C9.21392 17.2624 9.00864 17.2266 8.80506 17.1826C8.58609 17.1354 8.37396 17.0817 8.16697 17.0182C7.95826 16.9548 7.75126 16.8831 7.54769 16.8034C7.31503 16.7122 7.08579 16.6081 6.8634 16.4941C6.63929 16.3802 6.42032 16.2549 6.21162 16.1214C6.0012 15.9863 5.79591 15.8431 5.59918 15.6901C5.40074 15.5355 5.21256 15.3727 5.03635 15.2067L5.02096 15.1904C4.84475 15.0212 4.6771 14.8438 4.51972 14.6615C4.36233 14.4792 4.2135 14.2871 4.07322 14.0869C3.93294 13.8867 3.80121 13.68 3.68146 13.4668C3.56171 13.2552 3.45394 13.0371 3.35814 12.8174C3.27431 12.6237 3.19733 12.4268 3.13232 12.2282C3.06732 12.0329 3.00915 11.8294 2.96125 11.6211C2.91506 11.4274 2.87743 11.2321 2.84834 11.0368C2.82097 10.8464 2.79873 10.6527 2.78676 10.4574L2.77649 10.4167C2.77307 10.3971 2.77136 10.3776 2.77136 10.3597L2.77307 9.63216C2.77307 9.61426 2.77478 9.59635 2.77821 9.57845L2.78847 9.53939C2.80044 9.34245 2.82268 9.14876 2.85006 8.95833C2.87914 8.76139 2.91677 8.56608 2.96296 8.3724C3.01257 8.16406 3.06903 7.96224 3.13403 7.76693C3.20075 7.56836 3.27602 7.37142 3.35985 7.17773C3.45565 6.95638 3.56514 6.73828 3.68489 6.52669C3.80464 6.31348 3.93636 6.10514 4.07664 5.90658C4.21863 5.70638 4.36917 5.51107 4.52998 5.32389C4.6925 5.13509 4.86357 4.95605 5.03977 4.78841L5.05346 4.77702C5.23309 4.60775 5.41955 4.44661 5.61286 4.29688C5.80446 4.14714 6.00633 4.00553 6.21675 3.87207C6.42717 3.73861 6.64443 3.61328 6.86853 3.49935C7.09092 3.38542 7.31845 3.28288 7.55282 3.19173C7.78548 3.10059 8.02327 3.01921 8.26619 2.94922C8.50569 2.87923 8.75032 2.82064 9.00009 2.77507C9.23959 2.72949 9.48593 2.69531 9.73911 2.6709C9.98204 2.64811 10.2318 2.63509 10.485 2.63509C10.5722 2.62695 10.6834 2.63021 10.7861 2.63184L10.899 2.63346C10.9178 2.63346 10.9383 2.63509 10.9571 2.63835L10.9999 2.64811C11.1385 2.65625 11.2753 2.66764 11.4105 2.68229C11.5508 2.69694 11.6893 2.71647 11.8279 2.73926C11.9784 2.76367 12.1273 2.79297 12.2761 2.82552C12.4249 2.85807 12.5721 2.89551 12.7192 2.93783C12.8988 2.98828 13.075 3.04525 13.2478 3.1071C13.4223 3.17057 13.5951 3.23893 13.7627 3.31217C13.9321 3.38704 14.098 3.4668 14.2588 3.55143C14.4231 3.6377 14.5822 3.73047 14.7378 3.8265L15.1381 4.07389C15.1587 4.08691 15.1775 4.10156 15.1946 4.11784C15.2083 4.13086 15.2203 4.14388 15.2305 4.15853C15.5881 4.42871 15.8481 4.66146 16.18 4.96582C16.2467 5.02767 16.2809 5.10905 16.2826 5.19043C16.2843 5.27344 16.2535 5.35645 16.1885 5.41992L14.447 7.07194H20Z" fill="#EEEEEE"/>
</g>
<defs>
<clipPath id="clip0">
<rect width="20" height="20" fill="white"/>
</clipPath>
</defs>
</svg>
