<svg width="20" height="20" viewBox="0 0 20 20" fill="none" xmlns="http://www.w3.org/2000/svg">
<path fill-rule="evenodd" clip-rule="evenodd" d="M1.45508 0H18.5449C19.3457 0 20 0.837936 20 1.86347C20 2.889 19.3457 3.72694 18.5449 3.72694H1.45508C0.654297 3.72694 0 2.889 0 1.86347C0 0.837936 0.654297 0 1.45508 0ZM1.45508 16.2731H18.5449C19.3457 16.2731 20 17.111 20 18.1365C20 19.1621 19.3457 20 18.5449 20H1.45508C0.654297 20 0 19.1621 0 18.1365C0 17.111 0.654297 16.2731 1.45508 16.2731ZM1.45508 8.13549H18.5449C19.3457 8.13549 20 8.97342 20 9.99896C20 11.0245 19.3457 11.8624 18.5449 11.8624H1.45508C0.654297 11.8624 0 11.0245 0 9.99896C0 8.97551 0.654297 8.13549 1.45508 8.13549Z" fill="white"/>
</svg>
