<svg width="208" height="99" viewBox="0 0 208 99" fill="none" xmlns="http://www.w3.org/2000/svg">
<path d="M20.8106 44L11.9706 31.64V44H4.13063V15.8H11.9706V27.96L20.7306 15.8H29.7706L19.4106 29.48L30.2906 44H20.8106ZM50.9941 39.4H40.9941L39.4741 44H31.2341L41.5141 15.8H50.5541L60.7941 44H52.5141L50.9941 39.4ZM49.0341 33.4L45.9941 24.28L42.9941 33.4H49.0341ZM96.2694 15.8V44H88.4294V28.44L83.1094 44H76.5494L71.1894 28.32V44H63.3494V15.8H72.8294L79.9094 34.12L86.8294 15.8H96.2694ZM108.412 15.8V32.16C108.412 33.68 108.759 34.8533 109.452 35.68C110.172 36.5067 111.252 36.92 112.692 36.92C114.132 36.92 115.212 36.5067 115.932 35.68C116.679 34.8267 117.052 33.6533 117.052 32.16V15.8H124.892V32.16C124.892 34.7467 124.346 36.96 123.252 38.8C122.159 40.6133 120.666 41.9867 118.772 42.92C116.906 43.8267 114.826 44.28 112.532 44.28C110.239 44.28 108.186 43.8267 106.372 42.92C104.586 41.9867 103.172 40.6133 102.132 38.8C101.119 36.9867 100.612 34.7733 100.612 32.16V15.8H108.412ZM139.849 44.28C136.569 44.28 133.875 43.5067 131.769 41.96C129.662 40.3867 128.529 38.1467 128.369 35.24H136.729C136.809 36.2267 137.102 36.9467 137.609 37.4C138.115 37.8533 138.769 38.08 139.569 38.08C140.289 38.08 140.875 37.9067 141.329 37.56C141.809 37.1867 142.049 36.68 142.049 36.04C142.049 35.2133 141.662 34.5733 140.889 34.12C140.115 33.6667 138.862 33.16 137.129 32.6C135.289 31.9867 133.795 31.4 132.649 30.84C131.529 30.2533 130.542 29.4133 129.689 28.32C128.862 27.2 128.449 25.7467 128.449 23.96C128.449 22.1467 128.902 20.6 129.809 19.32C130.715 18.0133 131.969 17.0267 133.569 16.36C135.169 15.6933 136.982 15.36 139.009 15.36C142.289 15.36 144.902 16.1333 146.849 17.68C148.822 19.2 149.875 21.3467 150.009 24.12H141.489C141.462 23.2667 141.195 22.6267 140.689 22.2C140.209 21.7733 139.582 21.56 138.809 21.56C138.222 21.56 137.742 21.7333 137.369 22.08C136.995 22.4267 136.809 22.92 136.809 23.56C136.809 24.0933 137.009 24.56 137.409 24.96C137.835 25.3333 138.355 25.6667 138.969 25.96C139.582 26.2267 140.489 26.5733 141.689 27C143.475 27.6133 144.942 28.2267 146.089 28.84C147.262 29.4267 148.262 30.2667 149.089 31.36C149.942 32.4267 150.369 33.7867 150.369 35.44C150.369 37.12 149.942 38.6267 149.089 39.96C148.262 41.2933 147.049 42.3467 145.449 43.12C143.875 43.8933 142.009 44.28 139.849 44.28ZM175.253 15.8V22.04H167.733V44H159.893V22.04H152.453V15.8H175.253ZM195.994 39.4H185.994L184.474 44H176.234L186.514 15.8H195.554L205.794 44H197.514L195.994 39.4ZM194.034 33.4L190.994 24.28L187.994 33.4H194.034Z" fill="#8EA8C3"/>
<path d="M20.2595 68.52C21.9129 68.8933 23.2195 69.72 24.1795 71C25.1662 72.2533 25.6595 73.6933 25.6595 75.32C25.6595 77.72 24.8329 79.6 23.1795 80.96C21.5262 82.32 19.2062 83 16.2195 83H2.25953V54.8H15.7795C18.6595 54.8 20.9129 55.44 22.5395 56.72C24.1929 58 25.0195 59.8 25.0195 62.12C25.0195 63.7733 24.5795 65.16 23.6995 66.28C22.8462 67.3733 21.6995 68.12 20.2595 68.52ZM10.0995 66H14.0595C16.0329 66 17.0195 65.1867 17.0195 63.56C17.0195 61.88 16.0329 61.04 14.0595 61.04H10.0995V66ZM14.6595 76.68C16.6329 76.68 17.6195 75.8533 17.6195 74.2C17.6195 73.3467 17.3529 72.6933 16.8195 72.24C16.3129 71.7867 15.5795 71.56 14.6195 71.56H10.0995V76.68H14.6595ZM36.7755 54.8V71.16C36.7755 72.68 37.1221 73.8533 37.8155 74.68C38.5355 75.5067 39.6155 75.92 41.0555 75.92C42.4955 75.92 43.5755 75.5067 44.2955 74.68C45.0421 73.8267 45.4155 72.6533 45.4155 71.16V54.8H53.2555V71.16C53.2555 73.7467 52.7088 75.96 51.6155 77.8C50.5221 79.6133 49.0288 80.9867 47.1355 81.92C45.2688 82.8267 43.1888 83.28 40.8955 83.28C38.6021 83.28 36.5488 82.8267 34.7355 81.92C32.9488 80.9867 31.5355 79.6133 30.4955 77.8C29.4821 75.9867 28.9755 73.7733 28.9755 71.16V54.8H36.7755ZM65.412 77H74.172V83H57.572V54.8H65.412V77ZM87.8605 83.28C84.5805 83.28 81.8871 82.5067 79.7805 80.96C77.6738 79.3867 76.5405 77.1467 76.3805 74.24H84.7405C84.8205 75.2267 85.1138 75.9467 85.6205 76.4C86.1271 76.8533 86.7805 77.08 87.5805 77.08C88.3005 77.08 88.8871 76.9067 89.3405 76.56C89.8205 76.1867 90.0605 75.68 90.0605 75.04C90.0605 74.2133 89.6738 73.5733 88.9005 73.12C88.1271 72.6667 86.8738 72.16 85.1405 71.6C83.3005 70.9867 81.8071 70.4 80.6605 69.84C79.5405 69.2533 78.5538 68.4133 77.7005 67.32C76.8738 66.2 76.4605 64.7467 76.4605 62.96C76.4605 61.1467 76.9138 59.6 77.8205 58.32C78.7271 57.0133 79.9805 56.0267 81.5805 55.36C83.1805 54.6933 84.9938 54.36 87.0205 54.36C90.3005 54.36 92.9138 55.1333 94.8605 56.68C96.8338 58.2 97.8871 60.3467 98.0205 63.12H89.5005C89.4738 62.2667 89.2071 61.6267 88.7005 61.2C88.2205 60.7733 87.5938 60.56 86.8205 60.56C86.2338 60.56 85.7538 60.7333 85.3805 61.08C85.0071 61.4267 84.8205 61.92 84.8205 62.56C84.8205 63.0933 85.0205 63.56 85.4205 63.96C85.8471 64.3333 86.3671 64.6667 86.9805 64.96C87.5938 65.2267 88.5005 65.5733 89.7005 66C91.4871 66.6133 92.9538 67.2267 94.1005 67.84C95.2738 68.4267 96.2738 69.2667 97.1005 70.36C97.9538 71.4267 98.3805 72.7867 98.3805 74.44C98.3805 76.12 97.9538 77.6267 97.1005 78.96C96.2738 80.2933 95.0605 81.3467 93.4605 82.12C91.8871 82.8933 90.0205 83.28 87.8605 83.28ZM119.865 78.4H109.865L108.345 83H100.105L110.385 54.8H119.425L129.665 83H121.385L119.865 78.4ZM117.905 72.4L114.865 63.28L111.865 72.4H117.905Z" fill="#8EA8C3"/>
</svg>
