<svg width="24" height="24" viewBox="0 0 24 24" fill="none" xmlns="http://www.w3.org/2000/svg">
<g clip-path="url(#clip0)">
<path d="M20.25 15.375V10.5C20.25 6.71249 17.7 3.56249 14.25 2.54999V2.32499C14.25 1.19999 13.425 0.149993 12.3 -7.15256e-06C10.9125 -0.150007 9.75 0.899993 9.75 2.24999V2.54999C6.3 3.56249 3.75 6.71249 3.75 10.5V15.375C3.75 16.8 2.7375 18.0375 1.35 18.3C1.0125 18.375 0.75 18.7125 0.75 19.0875C0.75 19.5375 1.0875 19.875 1.5375 19.875H22.4625C22.9125 19.875 23.25 19.5375 23.25 19.0875C23.25 18.7125 22.9875 18.375 22.65 18.3C21.2625 18.0375 20.25 16.8 20.25 15.375Z" fill="#23395B"/>
<path d="M14.025 21.375H13.425H10.5H9.9H9.375C9.375 22.8375 10.5375 24 12 24C13.4625 24 14.625 22.8375 14.625 21.375H14.025Z" fill="#23395B"/>
</g>
<defs>
<clipPath id="clip0">
<rect width="24" height="24" fill="white"/>
</clipPath>
</defs>
</svg>
