<svg width="21" height="21" viewBox="0 0 21 21" fill="none" xmlns="http://www.w3.org/2000/svg">
<g clip-path="url(#clip0)">
<path fill-rule="evenodd" clip-rule="evenodd" d="M14.3013 7.19483C14.5251 7.06096 14.7642 6.95034 15.0143 6.86499C15.5346 6.78079 16.0622 6.74074 16.5904 6.74536C17.3534 6.72998 18.1091 6.7898 18.1868 6.93164C18.2546 7.05697 18.2834 7.19715 18.2702 7.33667C18.2582 7.47651 18.2106 7.61176 18.1313 7.73145C17.9313 8.04248 17.5757 8.2732 17.2275 8.48853C16.8793 8.70386 16.5626 8.90894 16.6163 9.06104C16.6409 9.09127 16.671 9.1173 16.7052 9.13794C16.7812 9.19263 16.8904 9.25757 17.0034 9.32251C17.4241 9.55151 17.8034 9.83982 18.1276 10.177C18.4427 10.5238 18.7096 10.9056 18.9221 11.3135C18.9925 11.4434 19.061 11.5784 19.1258 11.7168C19.1906 11.8552 19.2629 12.0142 19.3258 12.1663L19.3406 12.2141C19.3606 12.3754 19.4127 12.5318 19.4944 12.6755C19.5259 12.7217 19.5573 12.7456 19.587 12.7456H19.9574H20.1037C20.4445 12.7234 20.6352 12.7114 20.8445 13.1848C20.986 13.5846 21.042 14.006 21.0093 14.4255C20.9946 14.8794 20.9066 15.3287 20.7482 15.7585C20.7066 15.9681 20.5883 16.1582 20.413 16.2969C20.2174 16.4361 19.98 16.5161 19.7333 16.5259H19.2981C19.124 16.5259 18.9721 16.5259 18.8591 16.5259C18.7462 16.5259 18.7276 16.5088 18.7147 16.5139C18.7017 16.519 18.7147 16.5259 18.6906 16.5601C18.5618 16.7259 18.4187 16.8819 18.2628 17.0266C18.0905 17.1975 17.8924 17.3684 17.7072 17.5393C17.522 17.7102 17.3516 17.8401 17.2053 17.9546L17.1145 18.023C17.0191 18.0784 16.9314 18.1444 16.8534 18.2195C16.8813 18.3458 16.9287 18.4679 16.9941 18.5818C17.0349 18.6741 17.0608 18.7288 17.0682 18.7527C17.1664 18.9731 17.2645 19.1885 17.3534 19.3765C17.5016 19.6926 17.6646 20.0276 17.7238 20.137V20.1489C17.8442 20.4326 17.8183 20.648 17.6479 20.8035C17.554 20.8734 17.4448 20.9238 17.3278 20.9512C17.2108 20.9787 17.0888 20.9825 16.9701 20.9624H15.5329C15.3333 20.9754 15.1341 20.9331 14.9606 20.8411C14.7753 20.7379 14.6161 20.5992 14.4939 20.4343L14.481 20.4138C14.4193 20.3107 14.3636 20.2046 14.3143 20.0959C14.1717 19.8071 13.9976 19.4448 13.8568 19.4978C12.9132 19.8506 11.9109 20.0512 10.8936 20.0908C9.74746 20.1096 8.6059 19.9525 7.51553 19.626C7.14513 19.5798 7.07846 19.7217 6.95993 19.9456C6.92659 20.0088 6.89326 20.0754 6.8451 20.1592C6.81547 20.2156 6.80621 20.2378 6.79325 20.2583C6.62657 20.5864 6.46544 20.906 5.9654 20.9983H5.90984L4.05782 20.9863H4.0393C3.93331 20.9808 3.82979 20.9546 3.73557 20.9094C3.63484 20.8621 3.55215 20.7876 3.49851 20.6958C3.33183 20.4155 3.44295 20.2053 3.55592 19.9917L3.60037 19.908L4.25413 18.5869L4.2671 18.5647C4.3277 18.487 4.35538 18.3916 4.34488 18.2964C4.31801 18.2154 4.26177 18.1454 4.18561 18.0981C4.05412 18.0127 3.92818 17.9272 3.81521 17.835C3.70223 17.7427 3.56889 17.6453 3.4448 17.5479C3.04871 17.2127 2.69798 16.8345 2.40027 16.4216C2.10206 16.0184 1.85884 15.5827 1.67613 15.1245C1.5374 14.7708 1.44175 14.404 1.39092 14.0308C1.39092 13.9453 1.3724 13.8599 1.36869 13.7727C1.06956 13.6386 0.804725 13.4474 0.591757 13.2117C0.37879 12.976 0.222552 12.7012 0.133401 12.4055C-0.072173 11.7629 -0.0518009 10.9648 0.26119 10.0762L0.783458 10.23C0.50936 11.0178 0.483431 11.7134 0.661225 12.2603C0.775453 12.6382 1.02808 12.9679 1.3761 13.1934C1.3761 13.1182 1.39277 13.0413 1.40574 12.9661C1.5405 12.1485 1.8728 11.3693 2.37804 10.6863C3.29565 9.42702 4.62325 8.46947 6.16912 7.95191C6.70119 8.39287 7.3215 8.73365 7.9952 8.95508C7.65194 9.02761 7.31366 9.11891 6.98215 9.22852H6.96734C6.8306 9.26667 6.71025 9.3434 6.62322 9.44793C6.53618 9.55246 6.48683 9.67953 6.48211 9.81128C6.4691 9.99792 6.53555 10.1819 6.66731 10.324C6.75943 10.4264 6.8842 10.4993 7.02386 10.5324C7.16352 10.5656 7.31095 10.5572 7.44516 10.5085C8.21911 10.2606 9.03354 10.1375 9.85278 10.1445C10.6785 10.1589 11.4976 10.2838 12.2845 10.5154C12.4201 10.56 12.5676 10.564 12.7059 10.5269C12.8442 10.4898 12.9663 10.4134 13.0549 10.3086C13.1173 10.2365 13.1644 10.1541 13.1938 10.0659C13.2232 9.97924 13.2345 9.88819 13.2271 9.79761C13.2171 9.6649 13.1622 9.53844 13.0702 9.43604C12.9781 9.33364 12.8536 9.26046 12.7141 9.22681C12.3715 9.1294 12.027 9.04566 11.6807 8.98071C12.7241 8.64236 13.6336 8.02329 14.2921 7.20337L14.3013 7.19483ZM9.85833 1.23471e-06C10.4399 -0.000416231 11.0159 0.105032 11.5533 0.310309C12.0907 0.515586 12.579 0.816659 12.9901 1.19629C13.4017 1.57578 13.7283 2.02641 13.9511 2.52242C14.1739 3.01843 14.2886 3.5501 14.2886 4.08704C14.2886 4.62397 14.1739 5.15564 13.9511 5.65165C13.7283 6.14767 13.4017 6.5983 12.9901 6.97779C12.5789 7.3581 12.0905 7.65983 11.5528 7.8657C11.0151 8.07158 10.4386 8.17755 9.85648 8.17755C9.27432 8.17755 8.69788 8.07158 8.16016 7.8657C7.62245 7.65983 7.13403 7.3581 6.72287 6.97779L6.69694 6.95215C6.08628 6.3772 5.6731 5.64872 5.50918 4.85802C5.34525 4.06731 5.43788 3.24954 5.77545 2.5072C6.11301 1.76486 6.68051 1.13097 7.40681 0.684968C8.13311 0.238964 8.98591 0.000687857 9.85833 1.23471e-06ZM10.4325 2.46436V5.55591H9.55645V3.47778C9.32441 3.64463 9.05483 3.76142 8.7675 3.81958V3.17188C9.23235 3.01294 9.48052 2.88306 9.71573 2.46436H10.4325ZM12.3104 1.8252C11.6597 1.23432 10.7829 0.903811 9.86997 0.905287C8.95704 0.906763 8.08151 1.2401 7.43305 1.83308C6.7846 2.42606 6.41545 3.23093 6.40558 4.0733C6.39571 4.91568 6.74592 5.72772 7.38034 6.3335L7.40441 6.35401C7.72653 6.65129 8.10895 6.8871 8.52984 7.04799C8.95072 7.20888 9.40183 7.29169 9.85741 7.29169C10.313 7.29169 10.7641 7.20888 11.185 7.04799C11.6059 6.8871 11.9883 6.65129 12.3104 6.35401C12.9601 5.75326 13.325 4.93919 13.325 4.09046C13.325 3.24172 12.9601 2.42765 12.3104 1.82691V1.8252ZM16.1681 11.686C16.3428 11.6847 16.5151 11.7231 16.6697 11.7981C16.8243 11.873 16.9565 11.982 17.0544 12.1155C17.1523 12.2489 17.213 12.4026 17.231 12.5629C17.2489 12.7232 17.2237 12.8851 17.1575 13.0342C17.0912 13.1834 16.9861 13.3151 16.8514 13.4176C16.7166 13.5202 16.5565 13.5904 16.3853 13.622C16.214 13.6537 16.037 13.6458 15.8698 13.599C15.7027 13.5523 15.5507 13.4681 15.4273 13.354C15.28 13.2177 15.1795 13.0443 15.1385 12.8555C15.0975 12.6667 15.1179 12.471 15.197 12.2928C15.2761 12.1147 15.4105 11.9621 15.5833 11.8541C15.756 11.7462 15.9595 11.6877 16.1681 11.686Z" fill="#EEEEEE"/>
</g>
<defs>
<clipPath id="clip0">
<rect width="21" height="21" fill="white"/>
</clipPath>
</defs>
</svg>
