<svg width="24" height="24" viewBox="0 0 24 24" fill="none" xmlns="http://www.w3.org/2000/svg">
<g clip-path="url(#clip0)">
<path d="M23.9246 10.6121L23.8496 10.0496L20.6246 9.48711C20.5496 9.14961 20.4371 8.84961 20.2871 8.54961C20.1746 8.24961 20.0246 7.94961 19.8371 7.64961L21.7121 4.98711L21.3746 4.53711C20.8121 3.82461 20.1371 3.14961 19.4246 2.58711L19.0121 2.24961L16.3496 4.12461C15.7496 3.78711 15.1496 3.56211 14.5121 3.37461L13.9496 0.149609L13.3871 0.0746094C12.4496 -0.0378906 11.5121 -0.0378906 10.6121 0.0746094L10.0496 0.149609L9.48711 3.37461C9.14961 3.44961 8.84961 3.56211 8.54961 3.71211C8.24961 3.82461 7.94961 3.97461 7.64961 4.16211L4.98711 2.28711L4.53711 2.62461C3.82461 3.18711 3.14961 3.86211 2.58711 4.57461L2.24961 4.98711L4.12461 7.64961C3.78711 8.24961 3.56211 8.84961 3.37461 9.48711L0.149609 10.0496L0.0746094 10.6121C-0.0378906 11.5496 -0.0378906 12.4871 0.0746094 13.3871L0.149609 13.9496L3.37461 14.5121C3.44961 14.8496 3.56211 15.1496 3.71211 15.4496C3.82461 15.7496 3.97461 16.0496 4.16211 16.3496L2.28711 19.0121L2.62461 19.4621C3.18711 20.1746 3.86211 20.8496 4.57461 21.4121L5.02461 21.7496L7.68711 19.8746C8.28711 20.2121 8.88711 20.4371 9.52461 20.6246L10.0871 23.8496L10.6496 23.9246C11.0996 23.9621 11.5871 23.9996 12.0371 23.9996C12.4871 23.9996 12.9746 23.9621 13.4246 23.9246L13.9871 23.8496L14.5496 20.6246C14.8871 20.5496 15.1871 20.4371 15.4871 20.2871C15.7871 20.1746 16.0871 20.0246 16.3871 19.8371L19.0496 21.7121L19.4996 21.3746C20.2121 20.8121 20.8871 20.1371 21.4496 19.4246L21.7871 18.9746L19.9121 16.3121C20.2496 15.7121 20.4746 15.1121 20.6621 14.4746L23.8871 13.9121L23.9621 13.3496C24.0371 12.4871 24.0371 11.5496 23.9246 10.6121ZM11.9996 16.4996C9.52461 16.4996 7.49961 14.4746 7.49961 11.9996C7.49961 9.52461 9.52461 7.49961 11.9996 7.49961C14.4746 7.49961 16.4996 9.52461 16.4996 11.9996C16.4996 14.4746 14.4746 16.4996 11.9996 16.4996Z" fill="#23395B"/>
</g>
<defs>
<clipPath id="clip0">
<rect width="24" height="24" fill="white"/>
</clipPath>
</defs>
</svg>
